0
SECTION
2
HEADER
0
ENDSEC
0
SECTION
2
ENTITIES
0
LWPOLYLINE
8
Letra_H
90
12
70
1
10
50.0
20
50.0
10
80.0
20
50.0
10
80.0
20
110.0
10
140.0
20
110.0
10
140.0
20
50.0
10
170.0
20
50.0
10
170.0
20
200.0
10
140.0
20
200.0
10
140.0
20
140.0
10
80.0
20
140.0
10
80.0
20
200.0
10
50.0
20
200.0
0
LWPOLYLINE
8
Letra_O
90
4
70
1
10
200.0
20
50.0
10
300.0
20
50.0
10
300.0
20
200.0
10
200.0
20
200.0
0
LWPOLYLINE
8
Letra_L
90
6
70
1
10
330.0
20
50.0
10
360.0
20
50.0
10
360.0
20
170.0
10
430.0
20
170.0
10
430.0
20
200.0
10
330.0
20
200.0
0
LWPOLYLINE
8
Letra_A
90
8
70
1
10
460.0
20
200.0
10
500.0
20
50.0
10
540.0
20
50.0
10
580.0
20
200.0
10
550.0
20
200.0
10
540.0
20
150.0
10
500.0
20
150.0
10
490.0
20
200.0
0
ENDSEC
0
EOF
